<svg xmlns="http://www.w3.org/2000/svg" width="1024" height="1024" viewBox="0 0 1024 1024">
  <!-- Generated by Design/icon.py. Edit that and re-run instead of editing this file. -->
  <defs>
    <linearGradient id="plateFill" x1="0" y1="0" x2="0" y2="1">
      <stop offset="0" stop-color="#343436"/>
      <stop offset="1" stop-color="#070707"/>
    </linearGradient>
    <clipPath id="plateClip"><rect x="100" y="100" width="824" height="824" rx="185"/></clipPath>
    <filter id="softShadow" x="-20%" y="-20%" width="140%" height="140%"><feGaussianBlur stdDeviation="16"/></filter>
    <filter id="contactShadow" x="-20%" y="-20%" width="140%" height="140%"><feGaussianBlur stdDeviation="5"/></filter>
  </defs>
  <!-- Plate: standard macOS icon grid (824x824 at 100,100) -->
  <rect x="100" y="100" width="824" height="824" rx="185" fill="url(#plateFill)"/>
  
  <rect x="102" y="102" width="820" height="820" rx="183" fill="none" stroke="#FFFFFF" stroke-opacity="0.14" stroke-width="4"/>

  <g fill="#000000">
    <polygon points="470.6,593.1 732.1,503.3 874.0,569.6 612.6,659.4" opacity="0.55" filter="url(#softShadow)" transform="translate(6,14)"/>
    <polygon points="470.6,593.1 732.1,503.3 874.0,569.6 612.6,659.4" opacity="0.8" filter="url(#contactShadow)"/>
    <polygon points="150.0,687.4 385.7,643.3 487.6,719.9 251.9,764.1" opacity="0.55" filter="url(#softShadow)" transform="translate(6,14)"/>
    <polygon points="150.0,687.4 385.7,643.3 487.6,719.9 251.9,764.1" opacity="0.8" filter="url(#contactShadow)"/>
  </g>
  <defs>
    <linearGradient id="g0_0" gradientUnits="userSpaceOnUse" x1="470.6" y1="385.8" x2="612.6" y2="659.4"><stop offset="0" stop-color="#FBCF69"/><stop offset="1" stop-color="#F0BB4C"/></linearGradient>
    <linearGradient id="g0_2" gradientUnits="userSpaceOnUse" x1="612.6" y1="452.1" x2="874.0" y2="569.6"><stop offset="0" stop-color="#DD9834"/><stop offset="1" stop-color="#CF7F11"/></linearGradient>
    <linearGradient id="g0_5" gradientUnits="userSpaceOnUse" x1="470.6" y1="385.8" x2="874.0" y2="362.2"><stop offset="0" stop-color="#EAAB3D"/><stop offset="1" stop-color="#DD931C"/></linearGradient>
    <linearGradient id="g1_1" gradientUnits="userSpaceOnUse" x1="150.0" y1="665.3" x2="487.6" y2="697.8"><stop offset="0" stop-color="#F8C65D"/><stop offset="1" stop-color="#EDB13E"/></linearGradient>
    <linearGradient id="g1_2" gradientUnits="userSpaceOnUse" x1="251.9" y1="741.9" x2="487.6" y2="719.9"><stop offset="0" stop-color="#E4A339"/><stop offset="1" stop-color="#D78A17"/></linearGradient>
    <linearGradient id="g1_5" gradientUnits="userSpaceOnUse" x1="150.0" y1="665.3" x2="251.9" y2="764.1"><stop offset="0" stop-color="#ECAE40"/><stop offset="1" stop-color="#E0971F"/></linearGradient>
  </defs>
    <polygon points="612.6,659.4 612.6,452.1 470.6,385.8 470.6,593.1" fill="url(#g0_0)"/>
    <polygon points="612.6,659.4 874.0,569.6 874.0,362.2 612.6,452.1" fill="url(#g0_2)"/>
    <polygon points="612.6,452.1 874.0,362.2 732.1,295.9 470.6,385.8" fill="url(#g0_5)"/>
    <polygon points="612.6,659.4 612.6,452.1 470.6,385.8 470.6,593.1" fill="none" stroke="#9A5406" stroke-width="24" stroke-linejoin="round" stroke-opacity="0.9"/>
    <polygon points="612.6,659.4 874.0,569.6 874.0,362.2 612.6,452.1" fill="none" stroke="#9A5406" stroke-width="24" stroke-linejoin="round" stroke-opacity="0.9"/>
    <polygon points="612.6,452.1 874.0,362.2 732.1,295.9 470.6,385.8" fill="none" stroke="#9A5406" stroke-width="24" stroke-linejoin="round" stroke-opacity="0.9"/>
    <polygon points="487.6,697.8 385.7,621.2 150.0,665.3 251.9,741.9" fill="url(#g1_1)"/>
    <polygon points="487.6,719.9 487.6,697.8 251.9,741.9 251.9,764.1" fill="url(#g1_2)"/>
    <polygon points="251.9,764.1 251.9,741.9 150.0,665.3 150.0,687.4" fill="url(#g1_5)"/>
    <polygon points="487.6,697.8 385.7,621.2 150.0,665.3 251.9,741.9" fill="none" stroke="#9A5406" stroke-width="24" stroke-linejoin="round" stroke-opacity="0.9"/>
    <polygon points="487.6,719.9 487.6,697.8 251.9,741.9 251.9,764.1" fill="none" stroke="#9A5406" stroke-width="24" stroke-linejoin="round" stroke-opacity="0.9"/>
    <polygon points="251.9,764.1 251.9,741.9 150.0,665.3 150.0,687.4" fill="none" stroke="#9A5406" stroke-width="24" stroke-linejoin="round" stroke-opacity="0.9"/>
</svg>
